<?xml version="1.0" encoding="UTF-8" standalone="no"?>
<!-- Created with Inkscape (http://www.inkscape.org/) -->

<svg
   xmlns:dc="http://purl.org/dc/elements/1.1/"
   xmlns:cc="http://creativecommons.org/ns#"
   xmlns:rdf="http://www.w3.org/1999/02/22-rdf-syntax-ns#"
   xmlns:svg="http://www.w3.org/2000/svg"
   xmlns="http://www.w3.org/2000/svg"
   xmlns:sodipodi="http://sodipodi.sourceforge.net/DTD/sodipodi-0.dtd"
   xmlns:inkscape="http://www.inkscape.org/namespaces/inkscape"
   width="201.74063"
   height="28.959999"
   viewBox="0 0 201.74063 28.959999"
   id="svg2"
   version="1.1"
   inkscape:version="0.91 r13725"
   sodipodi:docname="otokonfa-white.svg">
  <defs
     id="defs4" />
  <sodipodi:namedview
     id="base"
     pagecolor="#ffffff"
     bordercolor="#666666"
     borderopacity="1.0"
     inkscape:pageopacity="0.0"
     inkscape:pageshadow="2"
     inkscape:zoom="1.979899"
     inkscape:cx="67.025199"
     inkscape:cy="-3.920262"
     inkscape:document-units="px"
     inkscape:current-layer="layer1"
     showgrid="false"
     inkscape:window-width="1280"
     inkscape:window-height="700"
     inkscape:window-x="0"
     inkscape:window-y="1"
     inkscape:window-maximized="1"
     fit-margin-top="0"
     fit-margin-left="0"
     fit-margin-right="0"
     fit-margin-bottom="0"
     units="px" />
  <metadata
     id="metadata7">
    <rdf:RDF>
      <cc:Work
         rdf:about="">
        <dc:format>image/svg+xml</dc:format>
        <dc:type
           rdf:resource="http://purl.org/dc/dcmitype/StillImage" />
        <dc:title></dc:title>
      </cc:Work>
    </rdf:RDF>
  </metadata>
  <g
     inkscape:label="Layer 1"
     inkscape:groupmode="layer"
     id="layer1"
     transform="translate(-93.251426,-369.59648)">
    <g
       style="font-style:normal;font-weight:normal;font-size:40px;line-height:125%;font-family:sans-serif;letter-spacing:0px;word-spacing:0px;fill:#ffffff;fill-opacity:1;stroke:none;stroke-width:1px;stroke-linecap:butt;stroke-linejoin:miter;stroke-opacity:1"
       id="text4136">
      <path
         d="m 103.97143,393.35648 q 1.84,0 3.32,-0.92 1.52,-0.92 2.56,-2.48 1.04,-1.56 1.6,-3.64 0.6,-2.12 0.6,-4.52 0,-1.24 -0.32,-2.48 -0.28,-1.28 -0.92,-2.28 -0.64,-1 -1.68,-1.6 -1.04,-0.64 -2.52,-0.64 -1.88,0 -3.4,1 -1.48,0.96 -2.52,2.6 -1.000004,1.6 -1.560004,3.64 -0.52,2.04 -0.52,4.12 0,1.32 0.28,2.64 0.28,1.28 0.92,2.32 0.640004,1 1.640004,1.64 1.04,0.6 2.52,0.6 z m 0.04,5.2 q -2.96,0 -5.000004,-1.04 -2.04,-1.04 -3.32,-2.76 -1.28,-1.76 -1.88,-4 -0.56,-2.24 -0.56,-4.6 0,-3.28 0.92,-6.28 0.92,-3 2.64,-5.28 1.76,-2.28 4.320004,-3.64 2.56,-1.36 5.84,-1.36 2.68,0 4.64,1.04 2,1 3.28,2.72 1.28,1.72 1.88,3.92 0.64,2.2 0.64,4.52 0,3.44 -0.96,6.48 -0.92,3.04 -2.68,5.32 -1.72,2.28 -4.2,3.64 -2.48,1.32 -5.56,1.32 z"
         style="font-style:italic;font-variant:normal;font-weight:bold;font-stretch:normal;font-family:Overpass;-inkscape-font-specification:'Overpass Bold Italic';fill:#ffffff"
         id="path4141"
         inkscape:connector-curvature="0" />
      <path
         d="m 134.28455,375.27648 -4.04,22.8 -5.44,0 4.04,-22.8 -7.56,0 0.88,-5.2 20.56,0 -0.88,5.2 -7.56,0 z"
         style="font-style:italic;font-variant:normal;font-weight:bold;font-stretch:normal;font-family:Overpass;-inkscape-font-specification:'Overpass Bold Italic';fill:#ffffff"
         id="path4143"
         inkscape:connector-curvature="0" />
      <path
         d="m 153.19018,393.35648 q 1.84,0 3.32,-0.92 1.52,-0.92 2.56,-2.48 1.04,-1.56 1.6,-3.64 0.6,-2.12 0.6,-4.52 0,-1.24 -0.32,-2.48 -0.28,-1.28 -0.92,-2.28 -0.64,-1 -1.68,-1.6 -1.04,-0.64 -2.52,-0.64 -1.88,0 -3.4,1 -1.48,0.96 -2.52,2.6 -1,1.6 -1.56,3.64 -0.52,2.04 -0.52,4.12 0,1.32 0.28,2.64 0.28,1.28 0.92,2.32 0.64,1 1.64,1.64 1.04,0.6 2.52,0.6 z m 0.04,5.2 q -2.96,0 -5,-1.04 -2.04,-1.04 -3.32,-2.76 -1.28,-1.76 -1.88,-4 -0.56,-2.24 -0.56,-4.6 0,-3.28 0.92,-6.28 0.92,-3 2.64,-5.28 1.76,-2.28 4.32,-3.64 2.56,-1.36 5.84,-1.36 2.68,0 4.64,1.04 2,1 3.28,2.72 1.28,1.72 1.88,3.92 0.64,2.2 0.64,4.52 0,3.44 -0.96,6.48 -0.92,3.04 -2.68,5.32 -1.72,2.28 -4.2,3.64 -2.48,1.32 -5.56,1.32 z"
         style="font-style:italic;font-variant:normal;font-weight:bold;font-stretch:normal;font-family:Overpass;-inkscape-font-specification:'Overpass Bold Italic';fill:#ffffff"
         id="path4145"
         inkscape:connector-curvature="0" />
      <path
         d="m 187.06205,398.07648 -4.56,-13.28 -6.16,6.44 -1.2,6.84 -5.48,0 4.92,-28 5.48,0 -2.24,12.76 12.2,-12.76 6.56,0 -10,10.48 6.28,17.52 -5.8,0 z"
         style="font-style:italic;font-variant:normal;font-weight:bold;font-stretch:normal;font-family:Overpass;-inkscape-font-specification:'Overpass Bold Italic';fill:#ffffff"
         id="path4147"
         inkscape:connector-curvature="0" />
      <path
         d="m 208.2683,393.35648 q 1.84,0 3.32,-0.92 1.52,-0.92 2.56,-2.48 1.04,-1.56 1.6,-3.64 0.6,-2.12 0.6,-4.52 0,-1.24 -0.32,-2.48 -0.28,-1.28 -0.92,-2.28 -0.64,-1 -1.68,-1.6 -1.04,-0.64 -2.52,-0.64 -1.88,0 -3.4,1 -1.48,0.96 -2.52,2.6 -1,1.6 -1.56,3.64 -0.52,2.04 -0.52,4.12 0,1.32 0.28,2.64 0.28,1.28 0.92,2.32 0.64,1 1.64,1.64 1.04,0.6 2.52,0.6 z m 0.04,5.2 q -2.96,0 -5,-1.04 -2.04,-1.04 -3.32,-2.76 -1.28,-1.76 -1.88,-4 -0.56,-2.24 -0.56,-4.6 0,-3.28 0.92,-6.28 0.92,-3 2.64,-5.28 1.76,-2.28 4.32,-3.64 2.56,-1.36 5.84,-1.36 2.68,0 4.64,1.04 2,1 3.28,2.72 1.28,1.72 1.88,3.92 0.64,2.2 0.64,4.52 0,3.44 -0.96,6.48 -0.92,3.04 -2.68,5.32 -1.72,2.28 -4.2,3.64 -2.48,1.32 -5.56,1.32 z"
         style="font-style:italic;font-variant:normal;font-weight:bold;font-stretch:normal;font-family:Overpass;-inkscape-font-specification:'Overpass Bold Italic';fill:#ffffff"
         id="path4149"
         inkscape:connector-curvature="0" />
      <path
         d="m 241.78018,398.07648 -7.8,-16.32 q -0.2,-0.44 -0.4,-1 -0.2,-0.6 -0.36,-1.12 0,0.44 -0.08,1.08 -0.08,0.6 -0.16,1.04 l -2.88,16.32 -5.36,0 4.92,-28 5.08,0 7.56,16.12 q 0.2,0.4 0.4,1 0.24,0.56 0.36,1.12 0.04,-0.56 0.08,-1.12 0.08,-0.6 0.16,-1 l 2.84,-16.12 5.36,0 -4.92,28 -4.8,0 z"
         style="font-style:italic;font-variant:normal;font-weight:bold;font-stretch:normal;font-family:Overpass;-inkscape-font-specification:'Overpass Bold Italic';fill:#ffffff"
         id="path4151"
         inkscape:connector-curvature="0" />
      <path
         d="m 252.9433,398.07648 4.92,-28 18.04,0 -0.88,5.12 -12.56,0 -1.04,5.76 7.92,0 -0.96,5.36 -7.88,0 -2.08,11.76 -5.48,0 z"
         style="font-style:italic;font-variant:normal;font-weight:bold;font-stretch:normal;font-family:Overpass;-inkscape-font-specification:'Overpass Bold Italic';fill:#ffffff"
         id="path4153"
         inkscape:connector-curvature="0" />
      <path
         d="m 289.43205,398.07648 -1.04,-5.8 -10.36,0 -3.12,5.8 -5.8,0 15.2,-28 5.32,0 5.36,28 -5.56,0 z m -3.28,-18.52 q -0.04,-0.2 -0.08,-0.48 -0.04,-0.32 -0.12,-0.64 -0.04,-0.36 -0.12,-0.64 -0.04,-0.32 -0.04,-0.48 -0.16,0.36 -0.52,1.08 -0.32,0.68 -0.52,1.08 l -4.2,7.88 7,0 -1.4,-7.8 z"
         style="font-style:italic;font-variant:normal;font-weight:bold;font-stretch:normal;font-family:Overpass;-inkscape-font-specification:'Overpass Bold Italic';fill:#ffffff"
         id="path4155"
         inkscape:connector-curvature="0" />
    </g>
  </g>
</svg>
